<svg width="138" height="10" fill="none" xmlns="http://www.w3.org/2000/svg"><path d="M2.741 7.67V1.636h1.526V7.67H2.74ZM.487 5.416V3.891H6.52v1.525H.487Zm13.6-5.143V9H12.24V2.024h-.051l-1.999 1.253V1.641l2.16-1.368h1.735ZM22.936 9V7.67l3.107-2.876c.265-.256.486-.486.665-.69a2.62 2.62 0 0 0 .413-.601 1.49 1.49 0 0 0 .141-.644c0-.255-.058-.475-.175-.66a1.147 1.147 0 0 0-.477-.43 1.496 1.496 0 0 0-.686-.154c-.267 0-.5.054-.699.162a1.115 1.115 0 0 0-.46.464 1.505 1.505 0 0 0-.162.72h-1.751c0-.57.129-1.066.387-1.487A2.59 2.59 0 0 1 24.327.5c.466-.23 1.003-.346 1.61-.346.626 0 1.17.111 1.633.333a2.59 2.59 0 0 1 1.087.912c.258.389.387.835.387 1.338 0 .33-.065.655-.196.976-.127.32-.356.677-.686 1.07-.33.388-.794.856-1.393 1.401l-1.274 1.249v.06h3.664V9h-6.221Zm12.785.12c-.636 0-1.203-.11-1.7-.329-.494-.221-.885-.525-1.172-.912a2.292 2.292 0 0 1-.439-1.346h1.858c.012.213.081.4.209.562.13.16.304.283.52.37.216.089.459.133.729.133.28 0 .53-.05.745-.15.216-.099.385-.236.507-.412.123-.177.184-.38.184-.61a1.02 1.02 0 0 0-.196-.618 1.253 1.253 0 0 0-.554-.426 2.154 2.154 0 0 0-.853-.153h-.814V3.874h.814c.279 0 .524-.049.738-.145.215-.097.383-.23.502-.4a1.04 1.04 0 0 0 .18-.606 1.046 1.046 0 0 0-.593-.967c-.185-.094-.4-.14-.648-.14-.25 0-.478.045-.686.135a1.2 1.2 0 0 0-.498.38.998.998 0 0 0-.2.58h-1.77c.01-.504.153-.947.431-1.33a2.794 2.794 0 0 1 1.125-.9c.475-.218 1.01-.328 1.607-.328.602 0 1.13.11 1.58.329.453.218.803.514 1.053.886.253.37.378.784.375 1.244.003.489-.149.897-.456 1.223-.304.327-.7.534-1.188.622v.069c.642.082 1.13.305 1.465.669.339.36.506.812.503 1.355a2.13 2.13 0 0 1-.43 1.325c-.287.386-.683.69-1.19.912-.505.222-1.084.332-1.738.332Zm6.553-1.654V6.013l3.643-5.74h1.253v2.011h-.742L44.132 5.92v.068h5.178v1.479h-7.035ZM46.463 9V7.023l.035-.644V.273h1.73V9h-1.765Zm14.041.12c-.602 0-1.139-.111-1.61-.333a2.804 2.804 0 0 1-1.117-.916 2.353 2.353 0 0 1-.43-1.338h1.79c.02.338.161.612.425.822.265.21.579.315.942.315.29 0 .546-.063.767-.191.225-.131.4-.311.524-.542.128-.232.192-.5.192-.8 0-.307-.065-.577-.196-.81a1.385 1.385 0 0 0-.532-.546 1.567 1.567 0 0 0-.78-.2 1.85 1.85 0 0 0-.746.158 1.347 1.347 0 0 0-.558.43l-1.64-.294.412-4.602h5.336V1.78h-3.814l-.226 2.186h.051c.153-.216.385-.395.695-.537.31-.142.656-.213 1.04-.213.525 0 .994.124 1.406.371.412.247.737.587.975 1.019.24.429.357.923.354 1.482.003.589-.133 1.111-.409 1.569a2.884 2.884 0 0 1-1.146 1.074c-.489.258-1.057.387-1.705.387Zm9.735 0c-.603 0-1.14-.111-1.611-.333a2.803 2.803 0 0 1-1.117-.916 2.353 2.353 0 0 1-.43-1.338h1.79c.02.338.162.612.426.822.264.21.578.315.942.315.29 0 .545-.063.767-.191.224-.131.399-.311.524-.542.128-.232.192-.5.192-.8 0-.307-.066-.577-.196-.81a1.386 1.386 0 0 0-.533-.546 1.568 1.568 0 0 0-.78-.2 1.85 1.85 0 0 0-.746.158 1.347 1.347 0 0 0-.558.43l-1.64-.294.413-4.602h5.335V1.78h-3.814l-.226 2.186h.051c.154-.216.385-.395.695-.537.31-.142.656-.213 1.04-.213.525 0 .994.124 1.406.371.412.247.737.587.976 1.019.239.429.356.923.354 1.482.002.589-.134 1.111-.41 1.569a2.884 2.884 0 0 1-1.146 1.074c-.489.258-1.057.387-1.704.387Zm9.734 0c-.602 0-1.14-.111-1.61-.333a2.804 2.804 0 0 1-1.117-.916 2.354 2.354 0 0 1-.43-1.338h1.79c.019.338.161.612.425.822.264.21.578.315.942.315.29 0 .546-.063.767-.191.225-.131.4-.311.524-.542.128-.232.192-.5.192-.8 0-.307-.065-.577-.196-.81a1.386 1.386 0 0 0-.533-.546 1.568 1.568 0 0 0-.78-.2 1.85 1.85 0 0 0-.745.158 1.347 1.347 0 0 0-.558.43l-1.641-.294.413-4.602h5.335V1.78h-3.814l-.225 2.186h.05c.154-.216.386-.395.695-.537.31-.142.657-.213 1.04-.213.526 0 .995.124 1.406.371.412.247.738.587.976 1.019.239.429.357.923.354 1.482.003.589-.134 1.111-.41 1.569a2.886 2.886 0 0 1-1.145 1.074c-.49.258-1.057.387-1.705.387Zm10.642-5.204v1.44h-3.98v-1.44h3.98Zm6.717 5.203c-.602 0-1.139-.11-1.61-.332a2.804 2.804 0 0 1-1.117-.916 2.353 2.353 0 0 1-.43-1.338h1.79c.02.338.161.612.426.822.264.21.578.315.941.315.29 0 .546-.063.767-.191.225-.131.4-.311.525-.542.127-.232.191-.5.191-.8 0-.307-.065-.577-.196-.81a1.385 1.385 0 0 0-.532-.546 1.567 1.567 0 0 0-.78-.2 1.85 1.85 0 0 0-.746.158 1.348 1.348 0 0 0-.558.43l-1.64-.294.413-4.602h5.335V1.78h-3.814l-.226 2.186h.051c.154-.216.385-.395.695-.537.31-.142.656-.213 1.04-.213.525 0 .994.124 1.406.371.412.247.737.587.976 1.019.238.429.356.923.353 1.482.003.589-.133 1.111-.409 1.569a2.882 2.882 0 0 1-1.146 1.074c-.489.258-1.057.387-1.705.387Zm9.735 0c-.603 0-1.139-.11-1.611-.332a2.807 2.807 0 0 1-1.117-.916 2.355 2.355 0 0 1-.43-1.338h1.79c.02.338.162.612.426.822.264.21.578.315.942.315.29 0 .545-.063.767-.191.224-.131.399-.311.524-.542.128-.232.192-.5.192-.8 0-.307-.066-.577-.196-.81a1.39 1.39 0 0 0-.533-.546 1.566 1.566 0 0 0-.78-.2c-.255 0-.504.053-.746.158a1.354 1.354 0 0 0-.558.43l-1.64-.294.413-4.602h5.335V1.78h-3.814l-.226 2.186h.052c.153-.216.384-.395.694-.537.31-.142.656-.213 1.04-.213.525 0 .994.124 1.406.371.412.247.737.587.976 1.019.239.429.357.923.354 1.482.003.589-.134 1.111-.409 1.569a2.885 2.885 0 0 1-1.147 1.074c-.488.258-1.057.387-1.704.387Zm10.642-5.203v1.44h-3.98v-1.44h3.98Zm6.717 5.203c-.602 0-1.139-.11-1.611-.332a2.804 2.804 0 0 1-1.116-.916 2.355 2.355 0 0 1-.431-1.338h1.79c.02.338.162.612.426.822.265.21.578.315.942.315.29 0 .546-.063.767-.191.225-.131.399-.311.524-.542.128-.232.192-.5.192-.8 0-.307-.065-.577-.196-.81a1.383 1.383 0 0 0-.533-.546 1.565 1.565 0 0 0-.779-.2c-.256 0-.505.053-.746.158a1.34 1.34 0 0 0-.558.43l-1.641-.294.413-4.602h5.336V1.78h-3.814l-.226 2.186h.051c.153-.216.385-.395.695-.537a2.461 2.461 0 0 1 1.039-.213c.526 0 .995.124 1.407.371.411.247.737.587.975 1.019.239.429.357.923.354 1.482.003.589-.133 1.111-.409 1.569a2.889 2.889 0 0 1-1.146 1.074c-.489.258-1.057.387-1.705.387Zm9.735 0c-.603 0-1.14-.11-1.611-.332a2.807 2.807 0 0 1-1.117-.916 2.355 2.355 0 0 1-.43-1.338h1.79c.02.338.162.612.426.822.264.21.578.315.942.315.289 0 .545-.063.767-.191.224-.131.399-.311.524-.542.128-.232.191-.5.191-.8 0-.307-.065-.577-.196-.81a1.38 1.38 0 0 0-.532-.546 1.566 1.566 0 0 0-.78-.2c-.256 0-.504.053-.746.158a1.347 1.347 0 0 0-.558.43l-1.641-.294.414-4.602h5.335V1.78h-3.814l-.226 2.186h.051c.154-.216.385-.395.695-.537.31-.142.656-.213 1.04-.213.525 0 .994.124 1.406.371.412.247.737.587.976 1.019.238.429.356.923.353 1.482.003.589-.133 1.111-.409 1.569a2.876 2.876 0 0 1-1.146 1.074c-.489.258-1.057.387-1.704.387Z" fill="#1B2129"/></svg>